<?xml version="1.0" encoding="iso-8859-1"?>
<!-- Generator: Adobe Illustrator 24.0.3, SVG Export Plug-In . SVG Version: 6.00 Build 0)  -->
<svg version="1.1" xmlns="http://www.w3.org/2000/svg" xmlns:xlink="http://www.w3.org/1999/xlink" x="0px" y="0px"
	 viewBox="0 0 64 64" style="enable-background:new 0 0 64 64;" xml:space="preserve">
<g id="user-laptop">
	<path style="fill:#ABD8C7;" d="M56.998,6.609v1.134c0,2.768-2.154,5.019-4.801,5.019c-2.651,0-4.805-2.251-4.805-5.019V6.609
		c0-2.768,2.154-5.019,4.805-5.019C54.844,1.59,56.998,3.841,56.998,6.609z"/>
	<path style="fill:#ABD8C7;" d="M56.998,20.685v16.578c0,3.615-2.885,6.56-6.427,6.56h-8.957c-0.343,0-0.646,0.222-0.75,0.545
		L37.16,55.681c-0.359,1.089-1.348,1.82-2.473,1.82c-0.831,0-1.59-0.391-2.086-1.077c-0.516-0.706-0.654-1.594-0.379-2.429
		l4.684-14.424c0.674-1.961,2.493-3.28,4.531-3.28h6.282c0.44,0,0.795-0.355,0.795-0.791v-7.98c0-0.307-0.178-0.585-0.456-0.718
		c-0.282-0.129-0.609-0.089-0.847,0.109l-2.522,2.098H34.34c-1.105,0-2.005-0.924-2.005-2.058c0-1.134,0.9-2.054,2.005-2.054h7.274
		c0.234,0,0.456-0.105,0.609-0.282l5.374-6.387c0.702-0.831,1.719-1.311,2.792-1.311h2.925
		C55.348,16.917,56.998,18.607,56.998,20.685z"/>
	<g>
		<path style="fill:#9AC1B1;" d="M53.314,16.917h-1.21c2.033,0,3.684,1.69,3.684,3.768v16.578c0,3.615-2.885,6.56-6.427,6.56h1.21
			c3.542,0,6.427-2.945,6.427-6.56V20.685C56.998,18.607,55.348,16.917,53.314,16.917z"/>
	</g>
	<path style="fill:#47705D;" d="M26.065,23.344H9.051L3.391,5.213L1.878,5.685l6.996,22.416c0.101,0.331,0.407,0.557,0.754,0.557
		H28.72c0.44,0,0.795-0.355,0.795-0.795v-1.424C29.515,24.53,28.191,23.344,26.065,23.344z M27.929,27.072H10.213l-0.666-2.138
		h16.517c1.864,0,1.864,1.134,1.864,1.505V27.072z M62.122,36.819V23.146h-1.586v13.673c0,5.846-4.664,10.603-10.401,10.603h-6.713
		v1.59h6.713c0.492,0,0.972-0.04,1.444-0.101v13.241h-5.79v1.586h13.169v-1.586h-5.79V48.6
		C58.309,47.228,62.122,42.476,62.122,36.819z M53.314,15.331h-2.925c-1.541,0-3.002,0.682-4.006,1.876l-5.136,6.1H34.34
		c-1.981,0-3.591,1.634-3.591,3.643c0,0.847,0.299,1.618,0.779,2.235H2.52v1.59h20.919V64h1.586V30.776h21.899v3.93h-5.487
		c-2.711,0-5.136,1.751-6.036,4.365l-4.692,14.432c-0.428,1.327-0.21,2.731,0.609,3.853c0.799,1.101,2.025,1.731,3.373,1.731
		c1.807,0,3.405-1.17,3.974-2.913l3.526-10.764h8.38c4.418,0,8.017-3.655,8.017-8.146V20.685
		C58.588,17.732,56.223,15.331,53.314,15.331z M56.998,37.263c0,3.615-2.885,6.56-6.427,6.56h-8.957
		c-0.343,0-0.646,0.222-0.75,0.545L37.16,55.681c-0.359,1.089-1.348,1.82-2.473,1.82c-0.831,0-1.59-0.391-2.086-1.077
		c-0.516-0.706-0.654-1.594-0.379-2.429l4.684-14.424c0.674-1.961,2.493-3.28,4.531-3.28h6.282c0.44,0,0.795-0.355,0.795-0.791
		v-7.98c0-0.307-0.178-0.585-0.456-0.718c-0.282-0.129-0.609-0.089-0.847,0.109l-2.522,2.098H34.34
		c-1.105,0-2.005-0.924-2.005-2.058c0-1.134,0.9-2.054,2.005-2.054h7.274c0.234,0,0.456-0.105,0.609-0.282l5.374-6.387
		c0.702-0.831,1.719-1.311,2.792-1.311h2.925c2.033,0,3.684,1.69,3.684,3.768V37.263z M52.197,0c-3.526,0-6.391,2.965-6.391,6.609
		v1.134c0,3.643,2.865,6.609,6.391,6.609c3.522,0,6.391-2.965,6.391-6.609V6.609C58.588,2.965,55.719,0,52.197,0z M56.998,7.742
		c0,2.768-2.154,5.019-4.801,5.019c-2.651,0-4.805-2.251-4.805-5.019V6.609c0-2.768,2.154-5.019,4.805-5.019
		c2.647,0,4.801,2.251,4.801,5.019V7.742z"/>
</g>
<g id="Layer_1">
</g>
</svg>
